<?xml version="1.0" encoding="utf-8"?>
<!-- Generator: Adobe Illustrator 16.0.0, SVG Export Plug-In . SVG Version: 6.00 Build 0)  -->
<!DOCTYPE svg PUBLIC "-//W3C//DTD SVG 1.1//EN" "http://www.w3.org/Graphics/SVG/1.1/DTD/svg11.dtd">
<svg version="1.1"
	 id="svg2" xmlns:dc="http://purl.org/dc/elements/1.1/" xmlns:cc="http://creativecommons.org/ns#" xmlns:rdf="http://www.w3.org/1999/02/22-rdf-syntax-ns#" xmlns:svg="http://www.w3.org/2000/svg" xmlns:sodipodi="http://sodipodi.sourceforge.net/DTD/sodipodi-0.dtd" xmlns:inkscape="http://www.inkscape.org/namespaces/inkscape" sodipodi:docname="logo.svg" inkscape:version="0.91 r13725"
	 xmlns="http://www.w3.org/2000/svg" xmlns:xlink="http://www.w3.org/1999/xlink" x="0px" y="0px" width="283.464px"
	 height="283.464px" viewBox="155.906 279.213 283.464 283.464" enable-background="new 155.906 279.213 283.464 283.464"
	 xml:space="preserve">
<sodipodi:namedview  showgrid="false" inkscape:cy="348.76005" inkscape:cx="481.04432" inkscape:zoom="0.7" borderopacity="1.0" bordercolor="#666666" pagecolor="#ffffff" id="base" inkscape:window-maximized="1" inkscape:window-y="833" inkscape:current-layer="layer1" inkscape:document-units="px" inkscape:pageopacity="0.0" inkscape:window-x="-8" inkscape:window-height="1057" inkscape:window-width="1920" inkscape:pageshadow="2">
	</sodipodi:namedview>
<g>
	<path fill="#FFFFFF" d="M404.166,551.211c-9.359-8.271-13.644-20.182-17.511-31.771c29.136-25.055,47.591-62.18,47.591-103.62
		c0-75.447-61.161-136.608-136.608-136.608c-75.446,0-136.608,61.161-136.608,136.608c0,75.447,61.162,136.608,136.608,136.608
		c12.959,0,25.498-1.805,37.375-5.176c11.96,7.38,26.062,11.382,39.878,13.453c10.477,1.745,21.358,3.069,31.813,0.499
		C412.003,558.72,407.805,552.945,404.166,551.211z M341.072,471.024c-0.178,0.358-0.563,0.654-1.158,0.892
		c-0.591,0.234-1.421,0.412-2.488,0.533c-1.067,0.118-2.492,0.178-4.271,0.178c-1.542,0-2.802-0.06-3.78-0.178
		c-0.978-0.121-1.764-0.312-2.356-0.58c-0.594-0.265-1.053-0.636-1.379-1.109c-0.327-0.474-0.609-1.068-0.846-1.779l-10.584-27.132
		c-1.245-3.082-2.535-5.914-3.871-8.494c-1.334-2.579-2.92-4.804-4.759-6.671c-1.837-1.869-4.002-3.321-6.493-4.359
		c-2.49-1.036-5.485-1.557-8.983-1.557h-10.23v49.014c0,0.474-0.133,0.889-0.4,1.243c-0.267,0.358-0.682,0.639-1.244,0.845
		c-0.565,0.209-1.334,0.387-2.313,0.536c-0.979,0.146-2.209,0.222-3.692,0.222c-1.483,0-2.714-0.075-3.692-0.222
		c-0.977-0.149-1.764-0.327-2.356-0.536c-0.594-0.206-1.009-0.486-1.246-0.845c-0.238-0.354-0.354-0.77-0.354-1.243V363.215
		c0-2.313,0.606-3.928,1.822-4.848c1.216-0.918,2.504-1.379,3.87-1.379h24.462c2.905,0,5.322,0.075,7.249,0.223
		c1.927,0.149,3.661,0.311,5.205,0.489c4.447,0.771,8.374,1.987,11.784,3.646c3.41,1.661,6.271,3.767,8.584,6.316
		c2.313,2.551,4.048,5.47,5.203,8.762c1.157,3.291,1.737,6.924,1.737,10.897c0,3.855-0.521,7.308-1.559,10.362
		c-1.039,3.055-2.535,5.753-4.492,8.095c-1.956,2.343-4.299,4.374-7.027,6.094c-2.729,1.72-5.781,3.172-9.161,4.358
		c1.897,0.831,3.616,1.884,5.159,3.158c1.541,1.276,2.979,2.803,4.314,4.581c1.334,1.779,2.592,3.825,3.779,6.139
		c1.186,2.313,2.372,4.922,3.559,7.827l10.318,25.352c0.83,2.135,1.363,3.633,1.603,4.493c0.234,0.86,0.354,1.527,0.354,2.001
		S341.25,470.669,341.072,471.024z"/>
	<path fill="#FFFFFF" d="M316.922,396.661c0.917-2.371,1.377-4.95,1.377-7.738c0-4.506-1.009-8.317-3.023-11.43
		c-2.018-3.114-5.397-5.352-10.141-6.716c-1.484-0.415-3.158-0.711-5.026-0.89c-1.867-0.178-4.313-0.267-7.339-0.267h-12.898v38.783
		h14.945c4.031,0,7.516-0.489,10.451-1.468s5.383-2.341,7.338-4.092C314.564,401.094,316.001,399.034,316.922,396.661z"/>
</g>
</svg>
